<svg width="32" height="32" viewBox="0 0 32 32" fill="none" xmlns="http://www.w3.org/2000/svg">
<rect width="32" height="32" rx="16" fill="#F74B45"/>
<rect x="0.4" y="0.4" width="31.2" height="31.2" rx="15.6" stroke="url(#paint0_linear_4145_139)" stroke-opacity="0.32" stroke-width="0.8"/>
<path d="M11.7724 11.9327C10.7574 12.9874 10.1334 14.421 10.1334 16.0003C10.1334 19.2404 12.7599 21.867 16 21.867C16.7926 21.867 17.5485 21.7098 18.2382 21.4249C18.3226 20.8746 18.1375 20.3465 18.0619 20.1617C17.8935 19.7513 17.3377 19.0497 16.4099 18.0762C16.1622 17.8159 16.1781 17.6162 16.2667 17.0228L16.2769 16.9558C16.337 16.5493 16.4379 16.309 17.8056 16.0918C18.5005 15.9817 18.6832 16.2594 18.9365 16.644C18.9645 16.6866 18.9925 16.7284 19.0212 16.7703C19.2618 17.1221 19.4401 17.2026 19.7094 17.325C19.83 17.3797 19.9806 17.4487 20.1823 17.5634C20.6604 17.8366 20.6604 18.1451 20.6604 18.8216V18.8983C20.6604 19.1855 20.6323 19.4376 20.5882 19.6567C21.3884 18.6539 21.8667 17.383 21.8667 16.0003C21.8667 13.581 20.4022 11.5037 18.3114 10.6065C17.9057 10.8803 17.3492 11.2683 17.155 11.5343C17.0557 11.6703 16.9154 12.3642 16.4589 12.4215C16.3393 12.4365 16.1788 12.426 16.0088 12.415C15.5531 12.3854 14.9295 12.3454 14.7299 12.8873C14.6032 13.2307 14.5809 14.1629 14.9909 14.6468C15.0565 14.7241 15.0692 14.8671 15.0246 15.0276C14.966 15.2382 14.8477 15.3664 14.8108 15.3929C14.7401 15.3523 14.5991 15.1886 14.5036 15.0772C14.2734 14.8098 13.9863 14.4767 13.6152 14.3736C13.4802 14.3363 13.3319 14.3053 13.188 14.2751C12.7854 14.1907 12.3293 14.0946 12.2233 13.8685C12.1459 13.7029 12.1463 13.4749 12.1466 13.2339C12.1466 12.9285 12.1466 12.5832 11.997 12.2475C11.9392 12.1176 11.8617 12.0143 11.7724 11.9327ZM16 23.3337C11.9499 23.3337 8.66669 20.0504 8.66669 16.0003C8.66669 11.9502 11.9499 8.66699 16 8.66699C20.0501 8.66699 23.3334 11.9502 23.3334 16.0003C23.3334 20.0504 20.0501 23.3337 16 23.3337Z" fill="white"/>
<defs>
<linearGradient id="paint0_linear_4145_139" x1="16" y1="0" x2="16" y2="32" gradientUnits="userSpaceOnUse">
<stop stop-color="white"/>
<stop offset="1" stop-color="white" stop-opacity="0"/>
</linearGradient>
</defs>
</svg>
