<svg width="256" height="256" viewBox="0 0 256 256" fill="none" xmlns="http://www.w3.org/2000/svg">
<rect width="256" height="256" rx="128" fill="#F74B45"/>
<rect x="3.2" y="3.2" width="249.6" height="249.6" rx="124.8" stroke="url(#paint0_linear_4145_142)" stroke-opacity="0.32" stroke-width="6.4"/>
<path d="M94.1794 95.4619C86.0594 103.899 81.0668 115.368 81.0668 128.003C81.0668 153.923 102.08 174.936 128 174.936C134.341 174.936 140.388 173.679 145.906 171.4C146.58 166.997 145.1 162.772 144.495 161.294C143.148 158.011 138.702 152.397 131.279 144.61C129.298 142.527 129.425 140.93 130.133 136.182L130.215 135.646C130.696 132.394 131.503 130.472 142.445 128.735C148.004 127.854 149.466 130.075 151.492 133.152C151.716 133.493 151.94 133.827 152.17 134.162C154.095 136.977 155.521 137.62 157.675 138.6C158.64 139.038 159.844 139.59 161.458 140.507C165.283 142.693 165.283 145.161 165.283 150.573V151.186C165.283 153.484 165.059 155.501 164.706 157.253C171.107 149.231 174.933 139.064 174.933 128.003C174.933 108.648 163.218 92.0294 146.491 84.8522C143.246 87.0423 138.794 90.1465 137.24 92.2746C136.446 93.3622 135.323 98.9137 131.671 99.3719C130.714 99.492 129.43 99.4078 128.071 99.3203C124.424 99.0833 119.436 98.7635 117.839 103.098C116.825 105.845 116.647 113.303 119.927 117.174C120.452 117.793 120.554 118.937 120.197 120.22C119.728 121.906 118.781 122.931 118.486 123.143C117.921 122.818 116.792 121.509 116.029 120.618C114.187 118.478 111.891 115.814 108.922 114.989C107.842 114.69 106.655 114.443 105.504 114.2C102.283 113.525 98.6341 112.757 97.7864 110.948C97.1674 109.624 97.1701 107.799 97.1725 105.871C97.1725 103.428 97.1725 100.666 95.9757 97.9803C95.5133 96.941 94.8939 96.1141 94.1794 95.4619ZM128 186.669C95.5994 186.669 69.3335 160.403 69.3335 128.003C69.3335 95.6019 95.5994 69.3359 128 69.3359C160.401 69.3359 186.667 95.6019 186.667 128.003C186.667 160.403 160.401 186.669 128 186.669Z" fill="white"/>
<defs>
<linearGradient id="paint0_linear_4145_142" x1="128" y1="0" x2="128" y2="256" gradientUnits="userSpaceOnUse">
<stop stop-color="white"/>
<stop offset="1" stop-color="white" stop-opacity="0"/>
</linearGradient>
</defs>
</svg>
